<svg width="57" height="56" viewBox="0 0 57 56" fill="none" xmlns="http://www.w3.org/2000/svg">
<rect x="0.5" width="56" height="56" rx="28" fill="#00CCBB"/>
<path d="M31.0924 25.5568L31.0797 25.5361L31.059 25.5235L21.8501 19.9146L21.8502 19.9145L21.8473 19.9129C21.5892 19.7671 21.2948 19.8779 21.1095 20.0583C20.924 20.2389 20.8054 20.5304 20.9454 20.7936L20.9453 20.7936L20.9473 20.797L26.4139 30.1836L26.4272 30.2065L26.45 30.2197L35.8367 35.6864L35.8444 35.6909L35.8529 35.694C35.9769 35.739 36.1113 35.7473 36.24 35.7179C36.3686 35.6885 36.486 35.6227 36.5782 35.5283C36.6704 35.4339 36.7335 35.3149 36.7598 35.1856C36.7862 35.0563 36.7747 34.9222 36.7268 34.7992L36.7236 34.791L36.719 34.7835L31.0924 25.5568ZM33.8687 32.8223L27.6135 29.1437L30.099 26.6583L33.8687 32.8223Z" fill="white" stroke="white" stroke-width="0.2"/>
<path d="M40.7916 28.9889C40.5543 31.9062 39.2879 34.6457 37.2166 36.717C35.1453 38.7883 32.4058 40.0548 29.4885 40.292V38.2489V38.1489H29.3885H27.6107H27.5107V38.2489V40.292C24.5934 40.0548 21.8539 38.7883 19.7825 36.717C17.7112 34.6457 16.4448 31.9062 16.2076 28.9889H18.2507H18.3507V28.8889V27.1111V27.0111H18.2507H16.2076C16.4448 24.0938 17.7112 21.3543 19.7825 19.283C21.8539 17.2116 24.5934 15.9452 27.5107 15.708V17.7511V17.8511H27.6107H29.3885H29.4885V17.7511V15.708C32.4058 15.9452 35.1453 17.2116 37.2166 19.283C39.2879 21.3543 40.5543 24.0938 40.7916 27.0111H38.7485H38.6485V27.1111V28.8889V28.9889H38.7485H40.7916ZM28.4996 13.6778C25.6669 13.6778 22.8978 14.5178 20.5426 16.0915C18.1873 17.6652 16.3516 19.9021 15.2676 22.5191C14.1835 25.1362 13.8999 28.0159 14.4525 30.7941C15.0052 33.5724 16.3692 36.1243 18.3722 38.1273C20.3752 40.1303 22.9272 41.4944 25.7054 42.047C28.4837 42.5996 31.3634 42.316 33.9804 41.232C36.5975 40.148 38.8343 38.3123 40.4081 35.957C41.9818 33.6017 42.8218 30.8327 42.8218 28C42.8218 24.2015 41.3128 20.5586 38.6269 17.8727C35.941 15.1867 32.2981 13.6778 28.4996 13.6778Z" fill="white" stroke="white" stroke-width="0.2"/>
</svg>
