<svg width="57" height="56" viewBox="0 0 57 56" fill="none" xmlns="http://www.w3.org/2000/svg">
<rect x="0.5" width="56" height="56" rx="28" fill="#00CCBB"/>
<path d="M28.4998 41.3333C26.8331 41.3333 25.2722 41.0169 23.8171 40.384C22.362 39.7511 21.0954 38.8956 20.0171 37.8173C18.9389 36.7391 18.0834 35.4724 17.4505 34.0173C16.8176 32.5622 16.5007 31.0009 16.4998 29.3333C16.4989 27.6658 16.8158 26.1049 17.4505 24.6507C18.0851 23.1964 18.9402 21.9298 20.0158 20.8507C21.0914 19.7716 22.358 18.916 23.8158 18.284C25.2736 17.652 26.8349 17.3351 28.4998 17.3333C30.1647 17.3316 31.726 17.6484 33.1838 18.284C34.6416 18.9196 35.9083 19.7751 36.9838 20.8507C38.0594 21.9262 38.9149 23.1929 39.5505 24.6507C40.186 26.1084 40.5025 27.6693 40.4998 29.3333C40.4971 30.9973 40.1807 32.5587 39.5505 34.0173C38.9202 35.476 38.0647 36.7427 36.9838 37.8173C35.9029 38.892 34.6362 39.7476 33.1838 40.384C31.7314 41.0204 30.17 41.3369 28.4998 41.3333ZM32.2331 34.9333L34.0998 33.0667L29.8331 28.8V22.6667H27.1665V29.8667L32.2331 34.9333ZM19.9665 15.1333L21.8331 17L16.1665 22.6667L14.2998 20.8L19.9665 15.1333ZM37.0331 15.1333L42.6998 20.8L40.8331 22.6667L35.1665 17L37.0331 15.1333ZM28.4998 38.6667C31.0998 38.6667 33.3056 37.7613 35.1171 35.9507C36.9287 34.14 37.834 31.9342 37.8331 29.3333C37.8322 26.7324 36.9269 24.5271 35.1171 22.7173C33.3074 20.9076 31.1016 20.0018 28.4998 20C25.898 19.9982 23.6927 20.904 21.8838 22.7173C20.0749 24.5307 19.1691 26.736 19.1665 29.3333C19.1638 31.9307 20.0696 34.1364 21.8838 35.9507C23.698 37.7649 25.9034 38.6702 28.4998 38.6667Z" fill="white"/>
</svg>
