<svg width="28" height="28" viewBox="0 0 28 28" fill="none" xmlns="http://www.w3.org/2000/svg">
<path d="M14.0002 25.6666C15.5325 25.6685 17.0502 25.3676 18.4659 24.7811C19.8816 24.1947 21.1675 23.3343 22.2497 22.2494C23.3346 21.1672 24.195 19.8814 24.7814 18.4656C25.3678 17.0499 25.6687 15.5323 25.6668 13.9999C25.6687 12.4676 25.3678 10.9499 24.7814 9.53421C24.195 8.1185 23.3346 6.83261 22.2497 5.75043C21.1675 4.66552 19.8816 3.80514 18.4659 3.21871C17.0502 2.63228 15.5325 2.33137 14.0002 2.33326C12.4678 2.33137 10.9502 2.63228 9.53446 3.21871C8.11874 3.80514 6.83286 4.66552 5.75067 5.75043C4.66577 6.83261 3.80538 8.1185 3.21896 9.53421C2.63253 10.9499 2.33162 12.4676 2.3335 13.9999C2.33162 15.5323 2.63253 17.0499 3.21896 18.4656C3.80538 19.8814 4.66577 21.1672 5.75067 22.2494C6.83286 23.3343 8.11874 24.1947 9.53446 24.7811C10.9502 25.3676 12.4678 25.6685 14.0002 25.6666Z" stroke="#00CCBB" stroke-width="2.33333" stroke-linejoin="round"/>
<path d="M9.3335 14L12.8335 17.5L19.8335 10.5" stroke="#00CCBB" stroke-width="2.33333" stroke-linecap="round" stroke-linejoin="round"/>
</svg>
