<svg width="57" height="56" viewBox="0 0 57 56" fill="none" xmlns="http://www.w3.org/2000/svg">
<rect x="0.5" width="56" height="56" rx="28" fill="#00CCBB"/>
<path d="M37.5 17H19.5C18.4391 17 17.4217 17.4214 16.6716 18.1716C15.9214 18.9217 15.5 19.9391 15.5 21V31C15.5 32.0609 15.9214 33.0783 16.6716 33.8284C17.4217 34.5786 18.4391 35 19.5 35H30.5L36.5 39V35H37.5C38.5609 35 39.5783 34.5786 40.3284 33.8284C41.0786 33.0783 41.5 32.0609 41.5 31V21C41.5 19.9391 41.0786 18.9217 40.3284 18.1716C39.5783 17.4214 38.5609 17 37.5 17Z" stroke="white" stroke-width="2.5" stroke-linecap="round" stroke-linejoin="round"/>
<path d="M22.5 27C22.5 27.2652 22.3946 27.5196 22.2071 27.7071C22.0196 27.8946 21.7652 28 21.5 28C21.2348 28 20.9804 27.8946 20.7929 27.7071C20.6054 27.5196 20.5 27.2652 20.5 27C20.5 26.7348 20.6054 26.4804 20.7929 26.2929C20.9804 26.1054 21.2348 26 21.5 26C21.7652 26 22.0196 26.1054 22.2071 26.2929C22.3946 26.4804 22.5 26.7348 22.5 27ZM28.5 27C28.5 27.2652 28.3946 27.5196 28.2071 27.7071C28.0196 27.8946 27.7652 28 27.5 28C27.2348 28 26.9804 27.8946 26.7929 27.7071C26.6054 27.5196 26.5 27.2652 26.5 27C26.5 26.7348 26.6054 26.4804 26.7929 26.2929C26.9804 26.1054 27.2348 26 27.5 26C27.7652 26 28.0196 26.1054 28.2071 26.2929C28.3946 26.4804 28.5 26.7348 28.5 27ZM34.5 27C34.5 27.2652 34.3946 27.5196 34.2071 27.7071C34.0196 27.8946 33.7652 28 33.5 28C33.2348 28 32.9804 27.8946 32.7929 27.7071C32.6054 27.5196 32.5 27.2652 32.5 27C32.5 26.7348 32.6054 26.4804 32.7929 26.2929C32.9804 26.1054 33.2348 26 33.5 26C33.7652 26 34.0196 26.1054 34.2071 26.2929C34.3946 26.4804 34.5 26.7348 34.5 27Z" stroke="white" stroke-width="2.5" stroke-linecap="round" stroke-linejoin="round"/>
</svg>
