<svg width="46" height="39" viewBox="0 0 46 39" fill="none" xmlns="http://www.w3.org/2000/svg">
<path d="M26.5937 39V26.5843C26.5937 19.4757 28.2229 13.633 31.4812 9.05618C34.8354 4.38202 39.675 1.3633 46 0V8.03371C42.9333 8.81274 40.5375 10.2734 38.8125 12.4157C37.0875 14.4607 36.0333 16.9925 35.65 20.0112H43.125V39H26.5937ZM0 39V26.5843C0 19.4757 1.62917 13.633 4.8875 9.05618C8.24167 4.38202 13.0813 1.3633 19.4062 0V8.03371C16.3396 8.81274 13.9437 10.2734 12.2187 12.4157C10.4937 14.4607 9.43958 16.9925 9.05625 20.0112H16.5312V39H0Z" fill="#010807"/>
</svg>
