<svg width="68" height="68" viewBox="0 0 68 68" fill="none" xmlns="http://www.w3.org/2000/svg">
<path d="M58.5455 23.0889C59.9921 23.0889 61.3795 23.6636 62.4024 24.6866C63.4253 25.7096 64 27.097 64 28.5437V39.4533C64 40.9 63.4253 42.2875 62.4024 43.3105C61.3795 44.3335 59.9921 44.9082 58.5455 44.9082H55.6491C54.9848 50.1813 52.4187 55.0306 48.4326 58.5459C44.4466 62.0611 39.3146 64.0005 34 64V58.5452C38.3399 58.5452 42.5021 56.8211 45.5708 53.7522C48.6396 50.6832 50.3636 46.5209 50.3636 42.1807V25.8163C50.3636 21.4762 48.6396 17.3138 45.5708 14.2449C42.5021 11.176 38.3399 9.45188 34 9.45188C29.6601 9.45188 25.4979 11.176 22.4292 14.2449C19.3604 17.3138 17.6364 21.4762 17.6364 25.8163V44.9082H9.45455C8.00791 44.9082 6.62053 44.3335 5.5976 43.3105C4.57467 42.2875 4 40.9 4 39.4533V28.5437C4 27.097 4.57467 25.7096 5.5976 24.6866C6.62053 23.6636 8.00791 23.0889 9.45455 23.0889H12.3509C13.0164 17.8165 15.5829 12.9682 19.5688 9.45372C23.5547 5.93919 28.6861 4 34 4C39.3139 4 44.4453 5.93919 48.4312 9.45372C52.4171 12.9682 54.9836 17.8165 55.6491 23.0889H58.5455ZM22.4364 44.3218L25.3273 39.6961C27.9264 41.3247 30.9328 42.186 34 42.1807C37.0672 42.186 40.0736 41.3247 42.6727 39.6961L45.5636 44.3218C42.0982 46.4936 38.0897 47.6423 34 47.6356C29.9103 47.6423 25.9018 46.4936 22.4364 44.3218Z" fill="#00CCBB"/>
</svg>
