<svg width="68" height="68" viewBox="0 0 68 68" fill="none" xmlns="http://www.w3.org/2000/svg">
<path d="M48.9968 6.49691C48.1667 7.32708 48.1667 8.66158 48.1667 11.3334V48.1667C48.1667 50.8386 48.1667 52.1731 48.9968 53.0033C49.827 53.8334 51.1615 53.8334 53.8333 53.8334C56.5052 53.8334 57.8397 53.8334 58.6698 53.0033C59.5 52.1731 59.5 50.8386 59.5 48.1667V11.3334C59.5 8.66158 59.5 7.32708 58.6698 6.49691C57.8397 5.66675 56.5052 5.66675 53.8333 5.66675C51.1615 5.66675 49.827 5.66675 48.9968 6.49691ZM28.3333 19.8334C28.3333 17.1616 28.3333 15.8271 29.1635 14.9969C29.9937 14.1667 31.3282 14.1667 34 14.1667C36.6718 14.1667 38.0063 14.1667 38.8365 14.9969C39.6667 15.8271 39.6667 17.1616 39.6667 19.8334V48.1667C39.6667 50.8386 39.6667 52.1731 38.8365 53.0033C38.0063 53.8334 36.6718 53.8334 34 53.8334C31.3282 53.8334 29.9937 53.8334 29.1635 53.0033C28.3333 52.1731 28.3333 50.8386 28.3333 48.1667V19.8334ZM9.33017 26.3302C8.5 27.1604 8.5 28.4949 8.5 31.1667V48.1667C8.5 50.8386 8.5 52.1731 9.33017 53.0033C10.1603 53.8334 11.4948 53.8334 14.1667 53.8334C16.8385 53.8334 18.173 53.8334 19.0032 53.0033C19.8333 52.1731 19.8333 50.8386 19.8333 48.1667V31.1667C19.8333 28.4949 19.8333 27.1604 19.0032 26.3302C18.173 25.5001 16.8385 25.5001 14.1667 25.5001C11.4948 25.5001 10.1603 25.5001 9.33017 26.3302ZM8.5 60.2084C7.93641 60.2084 7.39591 60.4323 6.9974 60.8308C6.59888 61.2293 6.375 61.7698 6.375 62.3334C6.375 62.897 6.59888 63.4375 6.9974 63.836C7.39591 64.2345 7.93641 64.4584 8.5 64.4584H59.5C60.0636 64.4584 60.6041 64.2345 61.0026 63.836C61.4011 63.4375 61.625 62.897 61.625 62.3334C61.625 61.7698 61.4011 61.2293 61.0026 60.8308C60.6041 60.4323 60.0636 60.2084 59.5 60.2084H8.5Z" fill="#00CCBB"/>
</svg>
