<svg width="57" height="56" viewBox="0 0 57 56" fill="none" xmlns="http://www.w3.org/2000/svg">
<rect x="0.5" width="56" height="56" rx="28" fill="#00CCBB"/>
<mask id="path-2-outside-1_1_277" maskUnits="userSpaceOnUse" x="14.5" y="12.6667" width="28" height="26" fill="black">
<rect fill="white" x="14.5" y="12.6667" width="28" height="26"/>
<path fill-rule="evenodd" clip-rule="evenodd" d="M37.7733 13.6667C37.196 13.6667 36.6667 13.6667 36.2373 13.724C35.7627 13.788 35.2627 13.9373 34.8507 14.3507C34.4387 14.764 34.288 15.2627 34.224 15.7373C34.1667 16.168 34.1667 16.6973 34.1667 17.2733V34.7267C34.1667 35.304 34.1667 35.8333 34.224 36.2627C34.288 36.7373 34.4373 37.2373 34.8507 37.6493C35.264 38.0613 35.7627 38.212 36.2373 38.276C36.668 38.3333 37.1973 38.3333 37.7733 38.3333H37.8933C38.4707 38.3333 39 38.3333 39.4293 38.276C39.904 38.212 40.404 38.0627 40.816 37.6493C41.228 37.236 41.3787 36.7373 41.4427 36.2627C41.5 35.832 41.5 35.3027 41.5 34.7267V17.2733C41.5 16.696 41.5 16.1667 41.4427 15.7373C41.3787 15.2627 41.2293 14.7627 40.816 14.3507C40.4027 13.9387 39.904 13.788 39.4293 13.724C38.9987 13.6667 38.4693 13.6667 37.8933 13.6667H37.7733ZM36.2667 15.7627L36.264 15.764L36.2627 15.768L36.256 15.7813C36.2305 15.8533 36.2139 15.928 36.2067 16.004C36.1693 16.284 36.1667 16.676 36.1667 17.3333V34.6667C36.1667 35.324 36.1693 35.716 36.2067 35.996C36.215 36.0768 36.2338 36.1561 36.2627 36.232L36.264 36.236L36.268 36.2373L36.272 36.24L36.2813 36.244C36.3107 36.256 36.3747 36.276 36.504 36.2933C36.784 36.3307 37.176 36.3333 37.8333 36.3333C38.4907 36.3333 38.8827 36.3307 39.1627 36.2933C39.2434 36.285 39.3228 36.2662 39.3987 36.2373L39.4027 36.236L39.404 36.232L39.4107 36.2187C39.4362 36.1467 39.4527 36.072 39.46 35.996C39.4973 35.716 39.5 35.324 39.5 34.6667V17.3333C39.5 16.676 39.4973 16.284 39.46 16.004C39.4517 15.9232 39.4329 15.8439 39.404 15.768L39.4027 15.764L39.3987 15.7627L39.3853 15.756C39.3134 15.7305 39.2386 15.7139 39.1627 15.7067C38.8827 15.6693 38.4907 15.6667 37.8333 15.6667C37.176 15.6667 36.784 15.6693 36.504 15.7067C36.4232 15.715 36.3426 15.7338 36.2667 15.7627ZM28.44 17.6667H28.56C29.1373 17.6667 29.6667 17.6667 30.096 17.724C30.5707 17.788 31.0707 17.9373 31.4827 18.3507C31.8947 18.764 32.0453 19.2627 32.1093 19.7373C32.1667 20.168 32.1667 20.6973 32.1667 21.2733V34.7267C32.1667 35.304 32.1667 35.8333 32.1093 36.2627C32.0453 36.7373 31.896 37.2373 31.4827 37.6493C31.0693 38.0613 30.5707 38.212 30.096 38.276C29.6653 38.3333 29.136 38.3333 28.56 38.3333H28.44C27.864 38.3333 27.3333 38.3333 26.904 38.276C26.4293 38.212 25.9293 38.0627 25.5173 37.6493C25.1053 37.236 24.9547 36.7373 24.8907 36.2627C24.8333 35.832 24.8333 35.3027 24.8333 34.7267V21.2733C24.8333 20.696 24.8333 20.1667 24.8907 19.7373C24.9547 19.2627 25.104 18.7627 25.5173 18.3507C25.9307 17.9387 26.4293 17.788 26.904 17.724C27.3347 17.6667 27.864 17.6667 28.44 17.6667ZM26.9307 19.764L26.9347 19.7627L26.9307 36.236L26.9293 36.232L26.9227 36.2187C26.8972 36.1467 26.8806 36.072 26.8733 35.996C26.836 35.716 26.8333 35.324 26.8333 34.6667V21.3333C26.8333 20.676 26.836 20.284 26.8733 20.004C26.8817 19.9232 26.9005 19.8439 26.9293 19.768L26.9307 19.764ZM26.9307 36.236L26.9347 19.7627L26.9387 19.76L26.948 19.756C27.0199 19.7305 27.0947 19.7139 27.1707 19.7067C27.4507 19.6693 27.8427 19.6667 28.5 19.6667C29.1573 19.6667 29.5493 19.6693 29.8293 19.7067C29.9101 19.715 29.9894 19.7338 30.0653 19.7627L30.0693 19.764L30.0707 19.768L30.0773 19.7813C30.0893 19.8107 30.1093 19.8747 30.1267 20.004C30.164 20.284 30.1667 20.676 30.1667 21.3333V34.6667C30.1667 35.324 30.164 35.716 30.1267 35.996C30.1183 36.0768 30.0995 36.1561 30.0707 36.232L30.0693 36.236L30.0653 36.2373L30.052 36.244C29.9801 36.2695 29.9053 36.286 29.8293 36.2933C29.5493 36.3307 29.1573 36.3333 28.5 36.3333C27.8427 36.3333 27.4507 36.3307 27.1707 36.2933C27.0899 36.285 27.0106 36.2662 26.9347 36.2373L26.9307 36.236ZM19.1067 23C18.5293 23 18 23 17.5707 23.0573C17.096 23.1213 16.596 23.2707 16.184 23.684C15.772 24.0973 15.6213 24.596 15.5573 25.0707C15.5 25.5013 15.5 26.0307 15.5 26.6067V34.7267C15.5 35.304 15.5 35.8333 15.5573 36.2627C15.6213 36.7373 15.7707 37.2373 16.184 37.6493C16.5973 38.0613 17.096 38.212 17.5707 38.276C18.0013 38.3333 18.5307 38.3333 19.1067 38.3333H19.2267C19.804 38.3333 20.3333 38.3333 20.7627 38.276C21.2373 38.212 21.7373 38.0627 22.1493 37.6493C22.5613 37.236 22.712 36.7373 22.776 36.2627C22.8333 35.832 22.8333 35.3027 22.8333 34.7267V26.6067C22.8333 26.0293 22.8333 25.5 22.776 25.0707C22.712 24.596 22.5627 24.096 22.1493 23.684C21.736 23.272 21.2373 23.1213 20.7627 23.0573C20.332 23 19.8027 23 19.2267 23H19.1067ZM17.6 25.096L17.5973 25.0973L17.596 25.1013L17.5893 25.1147C17.5638 25.1866 17.5473 25.2614 17.54 25.3373C17.5027 25.6173 17.5 26.0093 17.5 26.6667V34.6667C17.5 35.324 17.5027 35.716 17.54 35.996C17.5483 36.0768 17.5671 36.1561 17.596 36.232V36.2347L17.6013 36.2373L17.6147 36.244C17.644 36.256 17.708 36.276 17.8373 36.2933C18.1173 36.3307 18.5093 36.3333 19.1667 36.3333C19.824 36.3333 20.216 36.3307 20.496 36.2933C20.5768 36.285 20.6561 36.2662 20.732 36.2373L20.736 36.236L20.7373 36.232L20.74 36.2267L20.744 36.2187C20.7695 36.1467 20.7861 36.072 20.7933 35.996C20.8307 35.716 20.8333 35.324 20.8333 34.6667V26.6667C20.8333 26.0093 20.8307 25.6173 20.7933 25.3373C20.785 25.2566 20.7662 25.1772 20.7373 25.1013L20.736 25.0973L20.732 25.096L20.7187 25.0893C20.6467 25.0638 20.572 25.0473 20.496 25.04C20.216 25.0027 19.824 25 19.1667 25C18.5093 25 18.1173 25.0027 17.8373 25.04C17.7566 25.0483 17.6759 25.0671 17.6 25.096Z"/>
</mask>
<path fill-rule="evenodd" clip-rule="evenodd" d="M37.7733 13.6667C37.196 13.6667 36.6667 13.6667 36.2373 13.724C35.7627 13.788 35.2627 13.9373 34.8507 14.3507C34.4387 14.764 34.288 15.2627 34.224 15.7373C34.1667 16.168 34.1667 16.6973 34.1667 17.2733V34.7267C34.1667 35.304 34.1667 35.8333 34.224 36.2627C34.288 36.7373 34.4373 37.2373 34.8507 37.6493C35.264 38.0613 35.7627 38.212 36.2373 38.276C36.668 38.3333 37.1973 38.3333 37.7733 38.3333H37.8933C38.4707 38.3333 39 38.3333 39.4293 38.276C39.904 38.212 40.404 38.0627 40.816 37.6493C41.228 37.236 41.3787 36.7373 41.4427 36.2627C41.5 35.832 41.5 35.3027 41.5 34.7267V17.2733C41.5 16.696 41.5 16.1667 41.4427 15.7373C41.3787 15.2627 41.2293 14.7627 40.816 14.3507C40.4027 13.9387 39.904 13.788 39.4293 13.724C38.9987 13.6667 38.4693 13.6667 37.8933 13.6667H37.7733ZM36.2667 15.7627L36.264 15.764L36.2627 15.768L36.256 15.7813C36.2305 15.8533 36.2139 15.928 36.2067 16.004C36.1693 16.284 36.1667 16.676 36.1667 17.3333V34.6667C36.1667 35.324 36.1693 35.716 36.2067 35.996C36.215 36.0768 36.2338 36.1561 36.2627 36.232L36.264 36.236L36.268 36.2373L36.272 36.24L36.2813 36.244C36.3107 36.256 36.3747 36.276 36.504 36.2933C36.784 36.3307 37.176 36.3333 37.8333 36.3333C38.4907 36.3333 38.8827 36.3307 39.1627 36.2933C39.2434 36.285 39.3228 36.2662 39.3987 36.2373L39.4027 36.236L39.404 36.232L39.4107 36.2187C39.4362 36.1467 39.4527 36.072 39.46 35.996C39.4973 35.716 39.5 35.324 39.5 34.6667V17.3333C39.5 16.676 39.4973 16.284 39.46 16.004C39.4517 15.9232 39.4329 15.8439 39.404 15.768L39.4027 15.764L39.3987 15.7627L39.3853 15.756C39.3134 15.7305 39.2386 15.7139 39.1627 15.7067C38.8827 15.6693 38.4907 15.6667 37.8333 15.6667C37.176 15.6667 36.784 15.6693 36.504 15.7067C36.4232 15.715 36.3426 15.7338 36.2667 15.7627ZM28.44 17.6667H28.56C29.1373 17.6667 29.6667 17.6667 30.096 17.724C30.5707 17.788 31.0707 17.9373 31.4827 18.3507C31.8947 18.764 32.0453 19.2627 32.1093 19.7373C32.1667 20.168 32.1667 20.6973 32.1667 21.2733V34.7267C32.1667 35.304 32.1667 35.8333 32.1093 36.2627C32.0453 36.7373 31.896 37.2373 31.4827 37.6493C31.0693 38.0613 30.5707 38.212 30.096 38.276C29.6653 38.3333 29.136 38.3333 28.56 38.3333H28.44C27.864 38.3333 27.3333 38.3333 26.904 38.276C26.4293 38.212 25.9293 38.0627 25.5173 37.6493C25.1053 37.236 24.9547 36.7373 24.8907 36.2627C24.8333 35.832 24.8333 35.3027 24.8333 34.7267V21.2733C24.8333 20.696 24.8333 20.1667 24.8907 19.7373C24.9547 19.2627 25.104 18.7627 25.5173 18.3507C25.9307 17.9387 26.4293 17.788 26.904 17.724C27.3347 17.6667 27.864 17.6667 28.44 17.6667ZM26.9307 19.764L26.9347 19.7627L26.9307 36.236L26.9293 36.232L26.9227 36.2187C26.8972 36.1467 26.8806 36.072 26.8733 35.996C26.836 35.716 26.8333 35.324 26.8333 34.6667V21.3333C26.8333 20.676 26.836 20.284 26.8733 20.004C26.8817 19.9232 26.9005 19.8439 26.9293 19.768L26.9307 19.764ZM26.9307 36.236L26.9347 19.7627L26.9387 19.76L26.948 19.756C27.0199 19.7305 27.0947 19.7139 27.1707 19.7067C27.4507 19.6693 27.8427 19.6667 28.5 19.6667C29.1573 19.6667 29.5493 19.6693 29.8293 19.7067C29.9101 19.715 29.9894 19.7338 30.0653 19.7627L30.0693 19.764L30.0707 19.768L30.0773 19.7813C30.0893 19.8107 30.1093 19.8747 30.1267 20.004C30.164 20.284 30.1667 20.676 30.1667 21.3333V34.6667C30.1667 35.324 30.164 35.716 30.1267 35.996C30.1183 36.0768 30.0995 36.1561 30.0707 36.232L30.0693 36.236L30.0653 36.2373L30.052 36.244C29.9801 36.2695 29.9053 36.286 29.8293 36.2933C29.5493 36.3307 29.1573 36.3333 28.5 36.3333C27.8427 36.3333 27.4507 36.3307 27.1707 36.2933C27.0899 36.285 27.0106 36.2662 26.9347 36.2373L26.9307 36.236ZM19.1067 23C18.5293 23 18 23 17.5707 23.0573C17.096 23.1213 16.596 23.2707 16.184 23.684C15.772 24.0973 15.6213 24.596 15.5573 25.0707C15.5 25.5013 15.5 26.0307 15.5 26.6067V34.7267C15.5 35.304 15.5 35.8333 15.5573 36.2627C15.6213 36.7373 15.7707 37.2373 16.184 37.6493C16.5973 38.0613 17.096 38.212 17.5707 38.276C18.0013 38.3333 18.5307 38.3333 19.1067 38.3333H19.2267C19.804 38.3333 20.3333 38.3333 20.7627 38.276C21.2373 38.212 21.7373 38.0627 22.1493 37.6493C22.5613 37.236 22.712 36.7373 22.776 36.2627C22.8333 35.832 22.8333 35.3027 22.8333 34.7267V26.6067C22.8333 26.0293 22.8333 25.5 22.776 25.0707C22.712 24.596 22.5627 24.096 22.1493 23.684C21.736 23.272 21.2373 23.1213 20.7627 23.0573C20.332 23 19.8027 23 19.2267 23H19.1067ZM17.6 25.096L17.5973 25.0973L17.596 25.1013L17.5893 25.1147C17.5638 25.1866 17.5473 25.2614 17.54 25.3373C17.5027 25.6173 17.5 26.0093 17.5 26.6667V34.6667C17.5 35.324 17.5027 35.716 17.54 35.996C17.5483 36.0768 17.5671 36.1561 17.596 36.232V36.2347L17.6013 36.2373L17.6147 36.244C17.644 36.256 17.708 36.276 17.8373 36.2933C18.1173 36.3307 18.5093 36.3333 19.1667 36.3333C19.824 36.3333 20.216 36.3307 20.496 36.2933C20.5768 36.285 20.6561 36.2662 20.732 36.2373L20.736 36.236L20.7373 36.232L20.74 36.2267L20.744 36.2187C20.7695 36.1467 20.7861 36.072 20.7933 35.996C20.8307 35.716 20.8333 35.324 20.8333 34.6667V26.6667C20.8333 26.0093 20.8307 25.6173 20.7933 25.3373C20.785 25.2566 20.7662 25.1772 20.7373 25.1013L20.736 25.0973L20.732 25.096L20.7187 25.0893C20.6467 25.0638 20.572 25.0473 20.496 25.04C20.216 25.0027 19.824 25 19.1667 25C18.5093 25 18.1173 25.0027 17.8373 25.04C17.7566 25.0483 17.6759 25.0671 17.6 25.096Z" fill="white"/>
<path d="M26.8347 19.7626L26.8307 36.236L27.0307 36.236L27.0347 19.7627L26.8347 19.7626ZM36.2373 13.724L36.2109 13.5258L36.2106 13.5258L36.2373 13.724ZM34.224 15.7373L34.0258 15.7106L34.0257 15.7109L34.224 15.7373ZM34.224 36.2627L34.0258 36.2891L34.0258 36.2894L34.224 36.2627ZM36.2373 38.276L36.2106 38.4742L36.2109 38.4742L36.2373 38.276ZM39.4293 38.276L39.4558 38.4742L39.4561 38.4742L39.4293 38.276ZM41.4427 36.2627L41.6409 36.2894L41.6409 36.2891L41.4427 36.2627ZM41.4427 15.7373L41.6409 15.7109L41.6409 15.7106L41.4427 15.7373ZM39.4293 13.724L39.4561 13.5258L39.4557 13.5257L39.4293 13.724ZM36.2667 15.7627L36.1956 15.5757L36.1862 15.5793L36.1773 15.5838L36.2667 15.7627ZM36.264 15.764L36.1746 15.5851L36.1005 15.6221L36.0743 15.7008L36.264 15.764ZM36.2627 15.768L36.4415 15.8575L36.4479 15.8447L36.4524 15.8312L36.2627 15.768ZM36.256 15.7813L36.0771 15.6919L36.0716 15.7029L36.0675 15.7145L36.256 15.7813ZM36.2067 16.004L36.4051 16.0304L36.4058 16.0231L36.2067 16.004ZM36.2067 35.996L36.4057 35.9755L36.4049 35.9696L36.2067 35.996ZM36.2627 36.232L36.4526 36.1687L36.4496 36.1609L36.2627 36.232ZM36.264 36.236L36.0743 36.2992L36.1059 36.3941L36.2008 36.4257L36.264 36.236ZM36.268 36.2373L36.379 36.0709L36.3567 36.0561L36.3312 36.0476L36.268 36.2373ZM36.272 36.24L36.161 36.4064L36.1763 36.4166L36.1932 36.4238L36.272 36.24ZM36.2813 36.244L36.2025 36.4278L36.2056 36.4291L36.2813 36.244ZM36.504 36.2933L36.4774 36.4916L36.4776 36.4916L36.504 36.2933ZM39.1627 36.2933L39.1422 36.0943L39.1362 36.0951L39.1627 36.2933ZM39.3987 36.2373L39.3354 36.0474L39.3276 36.0504L39.3987 36.2373ZM39.4027 36.236L39.4659 36.4257L39.5608 36.3941L39.5924 36.2992L39.4027 36.236ZM39.404 36.232L39.2251 36.1425L39.2188 36.1553L39.2143 36.1688L39.404 36.232ZM39.4107 36.2187L39.5895 36.3081L39.5951 36.2971L39.5992 36.2855L39.4107 36.2187ZM39.46 35.996L39.2616 35.9695L39.2609 35.9769L39.46 35.996ZM39.46 16.004L39.261 16.0245L39.2618 16.0304L39.46 16.004ZM39.404 15.768L39.2141 15.8313L39.2171 15.8391L39.404 15.768ZM39.4027 15.764L39.5924 15.7008L39.5608 15.6059L39.4659 15.5743L39.4027 15.764ZM39.3987 15.7627L39.3092 15.9415L39.3219 15.9479L39.3354 15.9524L39.3987 15.7627ZM39.3853 15.756L39.4748 15.5771L39.4637 15.5716L39.4521 15.5675L39.3853 15.756ZM39.1627 15.7067L39.1362 15.905L39.1436 15.9058L39.1627 15.7067ZM36.504 15.7067L36.5245 15.9057L36.5304 15.9049L36.504 15.7067ZM30.096 17.724L30.1227 17.5258L30.1225 17.5258L30.096 17.724ZM32.1093 19.7373L32.3076 19.7109L32.3075 19.7106L32.1093 19.7373ZM32.1093 36.2627L32.3075 36.2894L32.3076 36.2891L32.1093 36.2627ZM30.096 38.276L30.1224 38.4742L30.1227 38.4742L30.096 38.276ZM26.904 38.276L26.8773 38.4742L26.8775 38.4742L26.904 38.276ZM24.8907 36.2627L24.6924 36.2891L24.6925 36.2894L24.8907 36.2627ZM24.8907 19.7373L24.6925 19.7106L24.6924 19.7109L24.8907 19.7373ZM26.904 17.724L26.8776 17.5257L26.8773 17.5258L26.904 17.724ZM26.9307 19.764L26.8674 19.5743L26.7726 19.6059L26.7409 19.7007L26.9307 19.764ZM26.9347 19.7627L26.9979 19.9524L27.0233 19.9439L27.0456 19.9291L26.9347 19.7627ZM26.9307 36.236L26.7409 36.2993L26.7726 36.3941L26.8675 36.4257L26.9307 36.236ZM26.9293 36.232L27.1191 36.1687L27.1146 36.1553L27.1082 36.1426L26.9293 36.232ZM26.9227 36.2187L26.7342 36.2855L26.7383 36.2971L26.7438 36.3081L26.9227 36.2187ZM26.8733 35.996L27.0726 35.9769L27.0716 35.9696L26.8733 35.996ZM26.8733 20.004L27.0717 20.0304L27.0723 20.0245L26.8733 20.004ZM26.9293 19.768L27.1164 19.8391L27.1191 19.8313L26.9293 19.768ZM26.9387 19.76L26.8599 19.5762L26.843 19.5834L26.8277 19.5936L26.9387 19.76ZM26.948 19.756L26.8811 19.5671L26.8692 19.5722L26.948 19.756ZM27.1707 19.7067L27.1898 19.9059L27.1971 19.9049L27.1707 19.7067ZM29.8293 19.7067L29.8029 19.905L29.8088 19.9056L29.8293 19.7067ZM30.0653 19.7627L29.9942 19.9498L30.0021 19.9524L30.0653 19.7627ZM30.0693 19.764L30.2591 19.7007L30.2274 19.6059L30.1326 19.5743L30.0693 19.764ZM30.0707 19.768L29.8809 19.8313L29.8854 19.8447L29.8918 19.8574L30.0707 19.768ZM30.0773 19.7813L30.2624 19.7056L30.2596 19.6986L30.2562 19.6919L30.0773 19.7813ZM30.1267 20.004L30.3249 19.9776L30.3249 19.9774L30.1267 20.004ZM30.1267 35.996L29.9283 35.9696L29.9277 35.9755L30.1267 35.996ZM30.0707 36.232L29.8836 36.1609L29.8809 36.1687L30.0707 36.232ZM30.0693 36.236L30.1325 36.4257L30.2274 36.3941L30.2591 36.2993L30.0693 36.236ZM30.0653 36.2373L30.0021 36.0476L29.9886 36.0521L29.9759 36.0585L30.0653 36.2373ZM30.052 36.244L30.1188 36.4325L30.1304 36.4284L30.1415 36.4229L30.052 36.244ZM29.8293 36.2933L29.8102 36.0941L29.8029 36.0951L29.8293 36.2933ZM27.1707 36.2933L27.1971 36.095L27.1912 36.0944L27.1707 36.2933ZM26.9347 36.2373L27.0058 36.0502L26.9979 36.0476L26.9347 36.2373ZM17.5707 23.0573L17.5442 22.8591L17.5439 22.8591L17.5707 23.0573ZM15.5573 25.0707L15.3591 25.0439L15.3591 25.0443L15.5573 25.0707ZM15.5573 36.2627L15.3591 36.2891L15.3591 36.2894L15.5573 36.2627ZM17.5707 38.276L17.5439 38.4742L17.5443 38.4742L17.5707 38.276ZM20.7627 38.276L20.7891 38.4742L20.7894 38.4742L20.7627 38.276ZM22.776 36.2627L22.9742 36.2894L22.9743 36.2891L22.776 36.2627ZM22.776 25.0707L22.9742 25.0442L22.9742 25.0439L22.776 25.0707ZM20.7627 23.0573L20.7894 22.8591L20.7891 22.8591L20.7627 23.0573ZM17.6 25.096L17.5289 24.909L17.5195 24.9126L17.5105 24.9171L17.6 25.096ZM17.5973 25.0973L17.5079 24.9185L17.4338 24.9555L17.4076 25.0341L17.5973 25.0973ZM17.596 25.1013L17.7749 25.1908L17.7812 25.1781L17.7857 25.1646L17.596 25.1013ZM17.5893 25.1147L17.4104 25.0252L17.4049 25.0362L17.4008 25.0479L17.5893 25.1147ZM17.54 25.3373L17.7384 25.3638L17.7391 25.3564L17.54 25.3373ZM17.54 35.996L17.739 35.9755L17.7382 35.9696L17.54 35.996ZM17.596 36.232H17.796V36.1953L17.7829 36.1609L17.596 36.232ZM17.596 36.2347H17.396V36.3583L17.5066 36.4136L17.596 36.2347ZM17.6013 36.2373L17.6908 36.0585L17.6907 36.0584L17.6013 36.2373ZM17.6147 36.244L17.5252 36.4229L17.532 36.4262L17.5389 36.4291L17.6147 36.244ZM17.8373 36.2933L17.8108 36.4916L17.8109 36.4916L17.8373 36.2933ZM20.496 36.2933L20.4755 36.0943L20.4696 36.0951L20.496 36.2933ZM20.732 36.2373L20.6687 36.0474L20.6609 36.0504L20.732 36.2373ZM20.736 36.236L20.7992 36.4257L20.8941 36.3941L20.9257 36.2992L20.736 36.236ZM20.7373 36.232L20.5584 36.1426L20.5521 36.1553L20.5476 36.1688L20.7373 36.232ZM20.744 36.2187L20.9229 36.3081L20.9284 36.2971L20.9325 36.2855L20.744 36.2187ZM20.7933 35.996L20.595 35.9695L20.5942 35.9769L20.7933 35.996ZM20.7933 25.3373L20.5943 25.3578L20.5951 25.3638L20.7933 25.3373ZM20.7373 25.1013L20.5474 25.1646L20.5504 25.1724L20.7373 25.1013ZM20.736 25.0973L20.9257 25.0341L20.8941 24.9392L20.7993 24.9076L20.736 25.0973ZM20.732 25.096L20.6426 25.2749L20.6553 25.2812L20.6687 25.2857L20.732 25.096ZM20.7187 25.0893L20.8081 24.9104L20.7971 24.9049L20.7855 24.9008L20.7187 25.0893ZM20.496 25.04L20.4695 25.2384L20.4769 25.2391L20.496 25.04ZM17.8373 25.04L17.8578 25.239L17.8638 25.2382L17.8373 25.04ZM37.7733 13.4667C37.2005 13.4667 36.6562 13.4663 36.2109 13.5258L36.2638 13.9222C36.6771 13.867 37.1915 13.8667 37.7733 13.8667V13.4667ZM36.2106 13.5258C35.714 13.5927 35.1645 13.7525 34.709 14.2095L34.9923 14.4919C35.3608 14.1222 35.8113 13.9833 36.2641 13.9222L36.2106 13.5258ZM34.709 14.2095C34.2541 14.6659 34.0928 15.2134 34.0258 15.7106L34.4222 15.7641C34.4832 15.3119 34.6233 14.8621 34.9923 14.4919L34.709 14.2095ZM34.0257 15.7109C33.9663 16.1576 33.9667 16.7017 33.9667 17.2733H34.3667C34.3667 16.6929 34.367 16.1784 34.4223 15.7637L34.0257 15.7109ZM33.9667 17.2733V34.7267H34.3667V17.2733H33.9667ZM33.9667 34.7267C33.9667 35.2995 33.9663 35.8438 34.0258 36.2891L34.4222 36.2362C34.367 35.8229 34.3667 35.3085 34.3667 34.7267H33.9667ZM34.0258 36.2894C34.0927 36.7859 34.2525 37.3355 34.7095 37.791L34.9919 37.5077C34.6222 37.1392 34.4833 36.6887 34.4222 36.2359L34.0258 36.2894ZM34.7095 37.791C35.1659 38.2459 35.7134 38.4072 36.2106 38.4742L36.2641 38.0778C35.8119 38.0168 35.3621 37.8767 34.9919 37.5077L34.7095 37.791ZM36.2109 38.4742C36.6576 38.5337 37.2017 38.5333 37.7733 38.5333V38.1333C37.1929 38.1333 36.6784 38.133 36.2637 38.0777L36.2109 38.4742ZM37.7733 38.5333H37.8933V38.1333H37.7733V38.5333ZM37.8933 38.5333C38.4662 38.5333 39.0104 38.5337 39.4558 38.4742L39.4029 38.0778C38.9896 38.1329 38.4751 38.1333 37.8933 38.1333V38.5333ZM39.4561 38.4742C39.9526 38.4073 40.5021 38.2475 40.9576 37.7905L40.6744 37.5081C40.3059 37.8778 39.8554 38.0167 39.4026 38.0778L39.4561 38.4742ZM40.9576 37.7905C41.4126 37.3341 41.5738 36.7866 41.6409 36.2894L41.2445 36.2359C41.1835 36.6881 41.0434 37.1379 40.6744 37.5081L40.9576 37.7905ZM41.6409 36.2891C41.7004 35.8424 41.7 35.2982 41.7 34.7267H41.3C41.3 35.3071 41.2996 35.8216 41.2444 36.2363L41.6409 36.2891ZM41.7 34.7267V17.2733H41.3V34.7267H41.7ZM41.7 17.2733C41.7 16.7005 41.7004 16.1562 41.6409 15.7109L41.2444 15.7638C41.2996 16.1771 41.3 16.6915 41.3 17.2733H41.7ZM41.6409 15.7106C41.5739 15.214 41.4142 14.6645 40.9572 14.209L40.6748 14.4923C41.0445 14.8608 41.1834 15.3113 41.2445 15.7641L41.6409 15.7106ZM40.9572 14.209C40.5008 13.7541 39.9532 13.5928 39.4561 13.5258L39.4026 13.9222C39.8548 13.9832 40.3046 14.1233 40.6748 14.4923L40.9572 14.209ZM39.4557 13.5257C39.0091 13.4663 38.4649 13.4667 37.8933 13.4667V13.8667C38.4737 13.8667 38.9883 13.867 39.4029 13.9222L39.4557 13.5257ZM37.8933 13.4667H37.7733V13.8667H37.8933V13.4667ZM36.1773 15.5838L36.1746 15.5851L36.3534 15.9429L36.3561 15.9416L36.1773 15.5838ZM36.0743 15.7008L36.0729 15.7048L36.4524 15.8312L36.4537 15.8272L36.0743 15.7008ZM36.0838 15.6785L36.0771 15.6919L36.4349 15.8708L36.4415 15.8575L36.0838 15.6785ZM36.0675 15.7145C36.0365 15.8019 36.0164 15.8927 36.0076 15.9849L36.4058 16.0231C36.4115 15.9634 36.4245 15.9046 36.4445 15.8481L36.0675 15.7145ZM36.0084 15.9776C35.9689 16.2739 35.9667 16.6817 35.9667 17.3333H36.3667C36.3667 16.6703 36.3698 16.2941 36.4049 16.0304L36.0084 15.9776ZM35.9667 17.3333V34.6667H36.3667V17.3333H35.9667ZM35.9667 34.6667C35.9667 35.3183 35.9689 35.7261 36.0084 36.0224L36.4049 35.9696C36.3698 35.7059 36.3667 35.3297 36.3667 34.6667H35.9667ZM36.0077 36.0165C36.0178 36.1146 36.0407 36.2109 36.0757 36.3031L36.4496 36.1609C36.4269 36.1013 36.4122 36.039 36.4056 35.9755L36.0077 36.0165ZM36.0729 36.2952L36.0743 36.2992L36.4537 36.1728L36.4524 36.1688L36.0729 36.2952ZM36.2008 36.4257L36.2048 36.4271L36.3312 36.0476L36.3272 36.0462L36.2008 36.4257ZM36.157 36.4037L36.161 36.4064L36.383 36.0736L36.379 36.0709L36.157 36.4037ZM36.1932 36.4238L36.2025 36.4278L36.3601 36.0602L36.3508 36.0562L36.1932 36.4238ZM36.2056 36.4291C36.256 36.4497 36.3381 36.4729 36.4774 36.4916L36.5306 36.0951C36.4113 36.0791 36.3653 36.0623 36.3571 36.0589L36.2056 36.4291ZM36.4776 36.4916C36.7739 36.5311 37.1817 36.5333 37.8333 36.5333V36.1333C37.1703 36.1333 36.7941 36.1302 36.5304 36.0951L36.4776 36.4916ZM37.8333 36.5333C38.485 36.5333 38.8928 36.5311 39.1891 36.4916L39.1362 36.0951C38.8726 36.1302 38.4964 36.1333 37.8333 36.1333V36.5333ZM39.1832 36.4923C39.2812 36.4822 39.3776 36.4593 39.4697 36.4243L39.3276 36.0504C39.268 36.0731 39.2056 36.0878 39.1422 36.0944L39.1832 36.4923ZM39.4619 36.4271L39.4659 36.4257L39.3395 36.0462L39.3355 36.0476L39.4619 36.4271ZM39.5924 36.2992L39.5937 36.2952L39.2143 36.1688L39.2129 36.1728L39.5924 36.2992ZM39.5829 36.3215L39.5895 36.3081L39.2318 36.1292L39.2251 36.1425L39.5829 36.3215ZM39.5992 36.2855C39.6301 36.1981 39.6502 36.1073 39.6591 36.0151L39.2609 35.9769C39.2552 36.0366 39.2422 36.0954 39.2222 36.1519L39.5992 36.2855ZM39.6582 36.0224C39.6978 35.7261 39.7 35.3183 39.7 34.6667H39.3C39.3 35.3297 39.2969 35.7059 39.2618 35.9696L39.6582 36.0224ZM39.7 34.6667V17.3333H39.3V34.6667H39.7ZM39.7 17.3333C39.7 16.6817 39.6978 16.2739 39.6582 15.9776L39.2618 16.0304C39.2969 16.2941 39.3 16.6703 39.3 17.3333H39.7ZM39.6589 15.9835C39.6488 15.8854 39.626 15.7891 39.5909 15.6969L39.2171 15.8391C39.2397 15.8987 39.2545 15.961 39.2611 16.0245L39.6589 15.9835ZM39.5937 15.7048L39.5924 15.7008L39.2129 15.8272L39.2143 15.8312L39.5937 15.7048ZM39.4659 15.5743L39.4619 15.5729L39.3354 15.9524L39.3394 15.9537L39.4659 15.5743ZM39.4881 15.5838L39.4748 15.5771L39.2959 15.9349L39.3092 15.9415L39.4881 15.5838ZM39.4521 15.5675C39.3648 15.5365 39.274 15.5164 39.1817 15.5076L39.1436 15.9058C39.2033 15.9115 39.262 15.9245 39.3185 15.9445L39.4521 15.5675ZM39.1891 15.5084C38.8928 15.4689 38.485 15.4667 37.8333 15.4667V15.8667C38.4964 15.8667 38.8726 15.8698 39.1362 15.9049L39.1891 15.5084ZM37.8333 15.4667C37.1817 15.4667 36.7739 15.4689 36.4776 15.5084L36.5304 15.9049C36.7941 15.8698 37.1703 15.8667 37.8333 15.8667V15.4667ZM36.4835 15.5077C36.3859 15.5178 36.2882 15.5405 36.1956 15.5757L36.3377 15.9496C36.3969 15.9271 36.4605 15.9122 36.5245 15.9056L36.4835 15.5077ZM28.44 17.8667H28.56V17.4667H28.44V17.8667ZM28.56 17.8667C29.1418 17.8667 29.6562 17.867 30.0695 17.9222L30.1225 17.5258C29.6771 17.4663 29.1329 17.4667 28.56 17.4667V17.8667ZM30.0693 17.9222C30.522 17.9833 30.9725 18.1222 31.341 18.4919L31.6243 18.2095C31.1688 17.7525 30.6193 17.5927 30.1227 17.5258L30.0693 17.9222ZM31.341 18.4919C31.7101 18.8621 31.8502 19.3119 31.9111 19.7641L32.3075 19.7106C32.2405 19.2134 32.0793 18.6659 31.6243 18.2095L31.341 18.4919ZM31.9111 19.7637C31.9663 20.1784 31.9667 20.6929 31.9667 21.2733H32.3667C32.3667 20.7017 32.367 20.1576 32.3076 19.7109L31.9111 19.7637ZM31.9667 21.2733V34.7267H32.3667V21.2733H31.9667ZM31.9667 34.7267C31.9667 35.3085 31.9663 35.8229 31.9111 36.2362L32.3076 36.2891C32.367 35.8438 32.3667 35.2995 32.3667 34.7267H31.9667ZM31.9111 36.2359C31.8501 36.6887 31.7111 37.1392 31.3415 37.5077L31.6239 37.791C32.0809 37.3355 32.2406 36.7859 32.3075 36.2894L31.9111 36.2359ZM31.3415 37.5077C30.9712 37.8767 30.5214 38.0168 30.0693 38.0778L30.1227 38.4742C30.6199 38.4072 31.1674 38.2459 31.6239 37.791L31.3415 37.5077ZM30.0696 38.0777C29.6549 38.133 29.1404 38.1333 28.56 38.1333V38.5333C29.1316 38.5333 29.6758 38.5337 30.1224 38.4742L30.0696 38.0777ZM28.56 38.1333H28.44V38.5333H28.56V38.1333ZM28.44 38.1333C27.8595 38.1333 27.3438 38.1329 26.9305 38.0778L26.8775 38.4742C27.3229 38.5337 27.8685 38.5333 28.44 38.5333V38.1333ZM26.9307 38.0778C26.478 38.0167 26.0275 37.8778 25.659 37.5081L25.3757 37.7905C25.8312 38.2475 26.3807 38.4073 26.8773 38.4742L26.9307 38.0778ZM25.659 37.5081C25.2899 37.1379 25.1498 36.6881 25.0889 36.2359L24.6925 36.2894C24.7595 36.7866 24.9207 37.3341 25.3757 37.7905L25.659 37.5081ZM25.0889 36.2363C25.0337 35.8216 25.0333 35.3071 25.0333 34.7267H24.6333C24.6333 35.2982 24.633 35.8424 24.6924 36.2891L25.0889 36.2363ZM25.0333 34.7267V21.2733H24.6333V34.7267H25.0333ZM25.0333 21.2733C25.0333 20.6915 25.0337 20.1771 25.0889 19.7638L24.6924 19.7109C24.633 20.1562 24.6333 20.7005 24.6333 21.2733H25.0333ZM25.0889 19.7641C25.1499 19.3113 25.2889 18.8608 25.6585 18.4923L25.3761 18.209C24.9191 18.6645 24.7594 19.214 24.6925 19.7106L25.0889 19.7641ZM25.6585 18.4923C26.0288 18.1233 26.4786 17.9832 26.9307 17.9222L26.8773 17.5258C26.3801 17.5928 25.8326 17.7541 25.3761 18.209L25.6585 18.4923ZM26.9304 17.9222C27.3451 17.867 27.8596 17.8667 28.44 17.8667V17.4667C27.8684 17.4667 27.3243 17.4663 26.8776 17.5257L26.9304 17.9222ZM26.9939 19.9537L26.9979 19.9524L26.8714 19.5729L26.8674 19.5743L26.9939 19.9537ZM27.1204 36.1727L27.1191 36.1687L26.7396 36.2953L26.7409 36.2993L27.1204 36.1727ZM27.1082 36.1426L27.1016 36.1292L26.7438 36.3081L26.7504 36.3214L27.1082 36.1426ZM27.1112 36.1519C27.0912 36.0954 27.0781 36.0366 27.0724 35.9769L26.6742 36.0151C26.6831 36.1073 26.7032 36.1981 26.7342 36.2855L27.1112 36.1519ZM27.0716 35.9696C27.0364 35.7059 27.0333 35.3297 27.0333 34.6667H26.6333C26.6333 35.3183 26.6356 35.7261 26.6751 36.0224L27.0716 35.9696ZM27.0333 34.6667V21.3333H26.6333V34.6667H27.0333ZM27.0333 21.3333C27.0333 20.6703 27.0364 20.2941 27.0716 20.0304L26.6751 19.9776C26.6356 20.2739 26.6333 20.6817 26.6333 21.3333H27.0333ZM27.0723 20.0245C27.0788 19.961 27.0936 19.8987 27.1163 19.8391L26.7424 19.6969C26.7074 19.7891 26.6845 19.8854 26.6744 19.9835L27.0723 20.0245ZM27.1191 19.8313L27.1204 19.8273L26.7409 19.7007L26.7396 19.7047L27.1191 19.8313ZM27.0456 19.9291L27.0496 19.9264L26.8277 19.5936L26.8237 19.5962L27.0456 19.9291ZM27.0175 19.9438L27.0268 19.9398L26.8692 19.5722L26.8599 19.5762L27.0175 19.9438ZM27.0148 19.9445C27.0713 19.9245 27.1301 19.9115 27.1897 19.9058L27.1516 19.5076C27.0594 19.5164 26.9685 19.5365 26.8812 19.5675L27.0148 19.9445ZM27.1971 19.9049C27.4608 19.8698 27.837 19.8667 28.5 19.8667V19.4667C27.8484 19.4667 27.4406 19.4689 27.1442 19.5084L27.1971 19.9049ZM28.5 19.8667C29.163 19.8667 29.5392 19.8698 29.8029 19.9049L29.8558 19.5084C29.5595 19.4689 29.1516 19.4667 28.5 19.4667V19.8667ZM29.8088 19.9056C29.8723 19.9121 29.9346 19.9269 29.9943 19.9496L30.1364 19.5757C30.0442 19.5407 29.9479 19.5178 29.8498 19.5077L29.8088 19.9056ZM30.0021 19.9524L30.0061 19.9537L30.1326 19.5743L30.1286 19.5729L30.0021 19.9524ZM29.8796 19.8273L29.8809 19.8313L30.2604 19.7047L30.2591 19.7007L29.8796 19.8273ZM29.8918 19.8574L29.8984 19.8708L30.2562 19.6919L30.2496 19.6786L29.8918 19.8574ZM29.8922 19.8571C29.8956 19.8653 29.9125 19.9113 29.9284 20.0306L30.3249 19.9774C30.3062 19.838 30.2831 19.756 30.2624 19.7056L29.8922 19.8571ZM29.9284 20.0304C29.9636 20.2941 29.9667 20.6703 29.9667 21.3333H30.3667C30.3667 20.6817 30.3644 20.2739 30.3249 19.9776L29.9284 20.0304ZM29.9667 21.3333V34.6667H30.3667V21.3333H29.9667ZM29.9667 34.6667C29.9667 35.3297 29.9636 35.7059 29.9284 35.9696L30.3249 36.0224C30.3644 35.7261 30.3667 35.3183 30.3667 34.6667H29.9667ZM29.9277 35.9755C29.9212 36.039 29.9064 36.1013 29.8837 36.1609L30.2576 36.3031C30.2927 36.2109 30.3155 36.1146 30.3256 36.0165L29.9277 35.9755ZM29.8809 36.1687L29.8796 36.1727L30.2591 36.2993L30.2604 36.2953L29.8809 36.1687ZM30.0061 36.0462L30.0021 36.0476L30.1285 36.4271L30.1325 36.4257L30.0061 36.0462ZM29.9759 36.0585L29.9625 36.0651L30.1415 36.4229L30.1548 36.4162L29.9759 36.0585ZM29.9852 36.0555C29.9287 36.0755 29.8699 36.0885 29.8103 36.0942L29.8484 36.4924C29.9406 36.4836 30.0315 36.4635 30.1188 36.4325L29.9852 36.0555ZM29.8029 36.0951C29.5392 36.1302 29.163 36.1333 28.5 36.1333V36.5333C29.1516 36.5333 29.5595 36.5311 29.8558 36.4916L29.8029 36.0951ZM28.5 36.1333C27.837 36.1333 27.4608 36.1302 27.1971 36.0951L27.1442 36.4916C27.4406 36.5311 27.8484 36.5333 28.5 36.5333V36.1333ZM27.1912 36.0944C27.1277 36.0878 27.0654 36.0731 27.0057 36.0504L26.8636 36.4243C26.9558 36.4593 27.0521 36.4822 27.1502 36.4923L27.1912 36.0944ZM26.9979 36.0476L26.9939 36.0462L26.8675 36.4257L26.8715 36.4271L26.9979 36.0476ZM19.1067 22.8C18.5338 22.8 17.9896 22.7996 17.5442 22.8591L17.5971 23.2556C18.0104 23.2004 18.5249 23.2 19.1067 23.2V22.8ZM17.5439 22.8591C17.0474 22.9261 16.4979 23.0858 16.0424 23.5428L16.3256 23.8252C16.6941 23.4555 17.1446 23.3166 17.5974 23.2555L17.5439 22.8591ZM16.0424 23.5428C15.5874 23.9992 15.4262 24.5468 15.3591 25.0439L15.7555 25.0974C15.8165 24.6452 15.9566 24.1954 16.3256 23.8252L16.0424 23.5428ZM15.3591 25.0443C15.2996 25.4909 15.3 26.0351 15.3 26.6067H15.7C15.7 26.0262 15.7004 25.5117 15.7556 25.0971L15.3591 25.0443ZM15.3 26.6067V34.7267H15.7V26.6067H15.3ZM15.3 34.7267C15.3 35.2995 15.2996 35.8438 15.3591 36.2891L15.7556 36.2362C15.7004 35.8229 15.7 35.3085 15.7 34.7267H15.3ZM15.3591 36.2894C15.4261 36.7859 15.5858 37.3355 16.0428 37.791L16.3252 37.5077C15.9555 37.1392 15.8166 36.6887 15.7555 36.2359L15.3591 36.2894ZM16.0428 37.791C16.4992 38.2459 17.0468 38.4072 17.5439 38.4742L17.5974 38.0778C17.1452 38.0168 16.6954 37.8767 16.3252 37.5077L16.0428 37.791ZM17.5443 38.4742C17.9909 38.5337 18.5351 38.5333 19.1067 38.5333V38.1333C18.5263 38.1333 18.0118 38.133 17.5971 38.0777L17.5443 38.4742ZM19.1067 38.5333H19.2267V38.1333H19.1067V38.5333ZM19.2267 38.5333C19.7995 38.5333 20.3438 38.5337 20.7891 38.4742L20.7362 38.0778C20.3229 38.1329 19.8085 38.1333 19.2267 38.1333V38.5333ZM20.7894 38.4742C21.286 38.4073 21.8355 38.2475 22.291 37.7905L22.0077 37.5081C21.6392 37.8778 21.1887 38.0167 20.7359 38.0778L20.7894 38.4742ZM22.291 37.7905C22.7459 37.3341 22.9072 36.7866 22.9742 36.2894L22.5778 36.2359C22.5168 36.6881 22.3767 37.1379 22.0077 37.5081L22.291 37.7905ZM22.9743 36.2891C23.0337 35.8424 23.0333 35.2982 23.0333 34.7267H22.6333C22.6333 35.3071 22.633 35.8216 22.5777 36.2363L22.9743 36.2891ZM23.0333 34.7267V26.6067H22.6333V34.7267H23.0333ZM23.0333 26.6067C23.0333 26.0338 23.0337 25.4896 22.9742 25.0442L22.5778 25.0971C22.633 25.5104 22.6333 26.0249 22.6333 26.6067H23.0333ZM22.9742 25.0439C22.9073 24.5474 22.7475 23.9979 22.2905 23.5423L22.0081 23.8256C22.3778 24.1941 22.5167 24.6446 22.5778 25.0974L22.9742 25.0439ZM22.2905 23.5423C21.8341 23.0874 21.2866 22.9262 20.7894 22.8591L20.7359 23.2555C21.1881 23.3165 21.6379 23.4566 22.0081 23.8256L22.2905 23.5423ZM20.7891 22.8591C20.3424 22.7996 19.7983 22.8 19.2267 22.8V23.2C19.8071 23.2 20.3216 23.2004 20.7363 23.2556L20.7891 22.8591ZM19.2267 22.8H19.1067V23.2H19.2267V22.8ZM17.5105 24.9171L17.5079 24.9185L17.6868 25.2762L17.6895 25.2749L17.5105 24.9171ZM17.4076 25.0341L17.4063 25.0381L17.7857 25.1646L17.7871 25.1606L17.4076 25.0341ZM17.4171 25.0119L17.4104 25.0252L17.7682 25.2041L17.7749 25.1908L17.4171 25.0119ZM17.4008 25.0479C17.3699 25.1352 17.3498 25.226 17.3409 25.3182L17.7391 25.3564C17.7448 25.2967 17.7578 25.238 17.7778 25.1815L17.4008 25.0479ZM17.3418 25.3109C17.3022 25.6072 17.3 26.015 17.3 26.6667H17.7C17.7 26.0036 17.7031 25.6274 17.7382 25.3638L17.3418 25.3109ZM17.3 26.6667V34.6667H17.7V26.6667H17.3ZM17.3 34.6667C17.3 35.3183 17.3022 35.7261 17.3418 36.0224L17.7382 35.9696C17.7031 35.7059 17.7 35.3297 17.7 34.6667H17.3ZM17.3411 36.0165C17.3512 36.1146 17.374 36.2109 17.4091 36.3031L17.7829 36.1609C17.7603 36.1013 17.7455 36.039 17.7389 35.9755L17.3411 36.0165ZM17.396 36.232V36.2347H17.796V36.232H17.396ZM17.5066 36.4136L17.5119 36.4162L17.6907 36.0584L17.6854 36.0558L17.5066 36.4136ZM17.5119 36.4162L17.5252 36.4229L17.7041 36.0651L17.6908 36.0585L17.5119 36.4162ZM17.5389 36.4291C17.5893 36.4497 17.6714 36.4729 17.8108 36.4916L17.8639 36.0951C17.7446 36.0791 17.6987 36.0623 17.6904 36.0589L17.5389 36.4291ZM17.8109 36.4916C18.1072 36.5311 18.515 36.5333 19.1667 36.5333V36.1333C18.5036 36.1333 18.1274 36.1302 17.8638 36.0951L17.8109 36.4916ZM19.1667 36.5333C19.8183 36.5333 20.2261 36.5311 20.5224 36.4916L20.4696 36.0951C20.2059 36.1302 19.8297 36.1333 19.1667 36.1333V36.5333ZM20.5165 36.4923C20.6146 36.4822 20.7109 36.4593 20.8031 36.4243L20.6609 36.0504C20.6013 36.0731 20.539 36.0878 20.4755 36.0944L20.5165 36.4923ZM20.7952 36.4271L20.7992 36.4257L20.6728 36.0462L20.6688 36.0476L20.7952 36.4271ZM20.9257 36.2992L20.9271 36.2952L20.5476 36.1688L20.5463 36.1728L20.9257 36.2992ZM20.9162 36.3214L20.9189 36.3161L20.5611 36.1372L20.5584 36.1426L20.9162 36.3214ZM20.9189 36.3161L20.9229 36.3081L20.5651 36.1292L20.5611 36.1372L20.9189 36.3161ZM20.9325 36.2855C20.9635 36.1981 20.9836 36.1073 20.9924 36.0151L20.5942 35.9769C20.5885 36.0366 20.5755 36.0954 20.5555 36.1519L20.9325 36.2855ZM20.9916 36.0224C21.0311 35.7261 21.0333 35.3183 21.0333 34.6667H20.6333C20.6333 35.3297 20.6302 35.7059 20.5951 35.9696L20.9916 36.0224ZM21.0333 34.6667V26.6667H20.6333V34.6667H21.0333ZM21.0333 26.6667C21.0333 26.015 21.0311 25.6072 20.9916 25.3109L20.5951 25.3638C20.6302 25.6274 20.6333 26.0036 20.6333 26.6667H21.0333ZM20.9923 25.3168C20.9822 25.2188 20.9593 25.1224 20.9243 25.0303L20.5504 25.1724C20.5731 25.232 20.5878 25.2944 20.5944 25.3578L20.9923 25.3168ZM20.9271 25.0381L20.9257 25.0341L20.5463 25.1606L20.5476 25.1646L20.9271 25.0381ZM20.7993 24.9076L20.7953 24.9063L20.6687 25.2857L20.6727 25.2871L20.7993 24.9076ZM20.8214 24.9171L20.8081 24.9104L20.6292 25.2682L20.6426 25.2749L20.8214 24.9171ZM20.7855 24.9008C20.6981 24.8699 20.6073 24.8497 20.5151 24.8409L20.4769 25.2391C20.5366 25.2448 20.5954 25.2578 20.6519 25.2778L20.7855 24.9008ZM20.5224 24.8418C20.2261 24.8022 19.8183 24.8 19.1667 24.8V25.2C19.8297 25.2 20.2059 25.2031 20.4696 25.2382L20.5224 24.8418ZM19.1667 24.8C18.515 24.8 18.1072 24.8022 17.8109 24.8418L17.8638 25.2382C18.1274 25.2031 18.5036 25.2 19.1667 25.2V24.8ZM17.8168 24.841C17.7193 24.8511 17.6216 24.8738 17.5289 24.909L17.6711 25.2829C17.7302 25.2605 17.7939 25.2455 17.8578 25.2389L17.8168 24.841Z" fill="white" mask="url(#path-2-outside-1_1_277)"/>
<path d="M16.5 40.3333C16.2348 40.3333 15.9804 40.4387 15.7929 40.6262C15.6054 40.8138 15.5 41.0681 15.5 41.3333C15.5 41.5986 15.6054 41.8529 15.7929 42.0404C15.9804 42.228 16.2348 42.3333 16.5 42.3333H40.5C40.7652 42.3333 41.0196 42.228 41.2071 42.0404C41.3946 41.8529 41.5 41.5986 41.5 41.3333C41.5 41.0681 41.3946 40.8138 41.2071 40.6262C41.0196 40.4387 40.7652 40.3333 40.5 40.3333H16.5Z" fill="white"/>
</svg>
