<svg width="68" height="68" viewBox="0 0 68 68" fill="none" xmlns="http://www.w3.org/2000/svg">
<path d="M26.9167 25.5H26.945M41.0833 25.5H41.1117M51 11.3334C53.2543 11.3334 55.4163 12.2289 57.0104 13.823C58.6045 15.417 59.5 17.579 59.5 19.8334V42.5C59.5 44.7544 58.6045 46.9164 57.0104 48.5105C55.4163 50.1045 53.2543 51 51 51H36.8333L22.6667 59.5V51H17C14.7457 51 12.5837 50.1045 10.9896 48.5105C9.39553 46.9164 8.5 44.7544 8.5 42.5V19.8334C8.5 17.579 9.39553 15.417 10.9896 13.823C12.5837 12.2289 14.7457 11.3334 17 11.3334H51Z" stroke="#00CCBB" stroke-width="6" stroke-linecap="round" stroke-linejoin="round"/>
<path d="M26.9167 36.8334C27.8401 37.7757 28.9422 38.5244 30.1584 39.0355C31.3747 39.5466 32.6808 39.8098 34.0001 39.8098C35.3194 39.8098 36.6254 39.5466 37.8417 39.0355C39.058 38.5244 40.1601 37.7757 41.0834 36.8334" stroke="#00CCBB" stroke-width="6" stroke-linecap="round" stroke-linejoin="round"/>
</svg>
