<svg width="57" height="56" viewBox="0 0 57 56" fill="none" xmlns="http://www.w3.org/2000/svg">
<rect x="0.5" width="56" height="56" rx="28" fill="#00CCBB"/>
<path d="M18.4997 34C16.4997 35.68 15.833 40.6667 15.833 40.6667C15.833 40.6667 20.8197 40 22.4997 38C23.4463 36.88 23.433 35.16 22.3797 34.12C21.8614 33.6253 21.1787 33.3395 20.4626 33.3174C19.7466 33.2952 19.0475 33.5383 18.4997 34ZM28.4997 32L24.4997 28C25.2092 26.1592 26.1026 24.3948 27.1663 22.7333C28.7199 20.2493 30.8832 18.2041 33.4503 16.7921C36.0175 15.3802 38.9032 14.6485 41.833 14.6667C41.833 18.2933 40.793 24.6667 33.833 29.3333C32.1486 30.3979 30.362 31.2912 28.4997 32Z" stroke="white" stroke-width="2.5" stroke-linecap="round" stroke-linejoin="round"/>
<path d="M24.4997 28H17.833C17.833 28 18.5663 23.96 20.4997 22.6667C22.6597 21.2267 27.1663 22.6667 27.1663 22.6667M28.4997 32V38.6667C28.4997 38.6667 32.5397 37.9333 33.833 36C35.273 33.84 33.833 29.3333 33.833 29.3333" stroke="white" stroke-width="2.5" stroke-linecap="round" stroke-linejoin="round"/>
</svg>
