<svg width="68" height="68" viewBox="0 0 68 68" fill="none" xmlns="http://www.w3.org/2000/svg">
<path d="M34.0003 28.3335C34.9451 28.3332 35.875 28.5693 36.7053 29.0201C37.5357 29.4709 38.2401 30.1221 38.7546 30.9146L38.9048 31.1668H59.5003L59.8318 31.1866C60.521 31.2678 61.1564 31.5991 61.6176 32.1177C62.0787 32.6363 62.3335 33.3062 62.3336 34.0001C62.3336 49.6486 49.6488 62.3335 34.0003 62.3335C33.2488 62.3335 32.5281 62.035 31.9968 61.5036C31.4654 60.9722 31.1669 60.2516 31.1669 59.5001V38.9046L30.9148 38.7545C30.1819 38.2791 29.5689 37.6407 29.1236 36.8892C28.6783 36.1377 28.4128 35.2934 28.3478 34.4223L28.3336 34.0001C28.3336 32.4972 28.9306 31.0559 29.9933 29.9932C31.056 28.9305 32.4974 28.3335 34.0003 28.3335ZM60.7129 24.5538C60.9357 25.2545 60.8774 26.0145 60.5502 26.673C60.2231 27.3315 59.6527 27.8371 58.9597 28.0828C58.2666 28.3285 57.5052 28.2952 56.8362 27.9899C56.1673 27.6845 55.6433 27.1311 55.3749 26.4465C54.0946 22.8393 51.9217 19.6151 49.0588 17.0745C46.1958 14.5339 42.7362 12.7597 39.0024 11.9173C35.2686 11.075 31.3823 11.1918 27.7058 12.257C24.0294 13.3223 20.6826 15.3011 17.9775 18.0091C15.2724 20.7172 13.2971 24.0661 12.2359 27.7437C11.1746 31.4212 11.0619 35.3077 11.9083 39.0406C12.7548 42.7735 14.5327 46.2312 17.0763 49.0914C19.62 51.9516 22.8465 54.121 26.4551 55.3975C26.806 55.5214 27.129 55.7132 27.4057 55.9619C27.6825 56.2106 27.9075 56.5115 28.068 56.8472C28.2285 57.1829 28.3213 57.5469 28.3411 57.9185C28.3609 58.2901 28.3073 58.6619 28.1834 59.0128C28.0595 59.3637 27.8677 59.6867 27.619 59.9634C27.3702 60.2402 27.0694 60.4652 26.7337 60.6257C26.398 60.7862 26.034 60.879 25.6624 60.8988C25.2908 60.9186 24.919 60.865 24.5681 60.7411C20.0566 59.1465 16.0225 56.4353 12.842 52.8603C9.66141 49.2853 7.43808 44.9631 6.37931 40.2967C5.32053 35.6303 5.46082 30.7718 6.78708 26.1743C8.11334 21.5768 10.5824 17.39 13.9639 14.0045C17.3454 10.619 21.5292 8.14508 26.1252 6.81342C30.7212 5.48176 35.5795 5.33576 40.2472 6.38905C44.9148 7.44234 49.2396 9.66059 52.8183 12.8369C56.397 16.0133 59.113 20.0442 60.7129 24.5538ZM47.6003 23.8001C48.0511 24.4013 48.2447 25.1569 48.1384 25.9008C48.0322 26.6447 47.6347 27.3159 47.0336 27.7668C46.4324 28.2177 45.6768 28.4113 44.9329 28.305C44.189 28.1987 43.5178 27.8013 43.0669 27.2001C42.0927 25.9011 40.8507 24.8266 39.425 24.0494C37.9994 23.2722 36.4233 22.8104 34.8037 22.6953C33.184 22.5802 31.5585 22.8145 30.0373 23.3823C28.516 23.95 27.1345 24.8381 25.9864 25.9862C24.8382 27.1344 23.9502 28.5159 23.3824 30.0371C22.8146 31.5584 22.5803 33.1839 22.6954 34.8035C22.8105 36.4232 23.2723 37.9992 24.0496 39.4249C24.8268 40.8505 25.9013 42.0925 27.2003 43.0668C27.8014 43.5177 28.1988 44.1889 28.3051 44.9328C28.4114 45.6767 28.2178 46.4323 27.7669 47.0335C27.3161 47.6346 26.6448 48.0321 25.9009 48.1383C25.1571 48.2446 24.4014 48.051 23.8003 47.6001C21.8518 46.1388 20.24 44.2757 19.0742 42.1373C17.9084 39.9988 17.2157 37.6347 17.043 35.2052C16.8704 32.7757 17.2218 30.3375 18.0735 28.0556C18.9251 25.7738 20.2572 23.7016 21.9794 21.9793C23.7017 20.2571 25.7739 18.925 28.0558 18.0733C30.3376 17.2216 32.7759 16.8702 35.2054 17.0429C37.6349 17.2156 39.9989 17.9082 42.1374 19.0741C44.2759 20.2399 46.1389 21.8516 47.6003 23.8001Z" fill="#00CCBB"/>
</svg>
