<svg width="68" height="68" viewBox="0 0 68 68" fill="none" xmlns="http://www.w3.org/2000/svg">
<path d="M18.0823 16.9094C22.5977 13.291 28.2137 11.3237 34 11.3334C40.0208 11.3334 45.5543 13.4187 49.9177 16.9094L54.0345 12.7925L58.0408 16.7989L53.924 20.9157C56.4662 24.0983 58.209 27.8436 59.0065 31.838C59.804 35.8324 59.633 39.9598 58.5078 43.8746C57.3826 47.7894 55.336 51.3776 52.5393 54.339C49.7426 57.3004 46.2771 59.5488 42.433 60.8958C38.5889 62.2429 34.4781 62.6495 30.4446 62.0815C26.4111 61.5136 22.5724 59.9877 19.2497 57.6316C15.9271 55.2754 13.2172 52.1576 11.3469 48.5391C9.47665 44.9205 8.50044 40.9066 8.5 36.8334C8.5 30.8125 10.5853 25.279 14.076 20.9157L9.95917 16.8017L13.9655 12.7954L18.0823 16.9094ZM34 56.6667C36.6045 56.6667 39.1836 56.1537 41.5899 55.157C43.9962 54.1603 46.1826 52.6994 48.0243 50.8577C49.866 49.016 51.3269 46.8296 52.3236 44.4233C53.3203 42.017 53.8333 39.4379 53.8333 36.8334C53.8333 34.2288 53.3203 31.6498 52.3236 29.2435C51.3269 26.8372 49.866 24.6508 48.0243 22.8091C46.1826 20.9674 43.9962 19.5065 41.5899 18.5098C39.1836 17.513 36.6045 17 34 17C28.7399 17 23.6952 19.0896 19.9757 22.8091C16.2562 26.5286 14.1667 31.5732 14.1667 36.8334C14.1667 42.0935 16.2562 47.1382 19.9757 50.8577C23.6952 54.5771 28.7399 56.6667 34 56.6667ZM36.8333 34H45.3333L31.1667 52.4167V39.6667H22.6667L36.8333 21.2359V34ZM22.6667 2.83337H45.3333V8.50004H22.6667V2.83337Z" fill="#00CCBB"/>
</svg>
