<svg width="57" height="56" viewBox="0 0 57 56" fill="none" xmlns="http://www.w3.org/2000/svg">
<rect x="0.5" width="56" height="56" rx="28" fill="#00CCBB"/>
<path d="M19.167 24C19.167 21.5246 20.1503 19.1507 21.9007 17.4003C23.651 15.65 26.025 14.6667 28.5003 14.6667C30.9757 14.6667 33.3496 15.65 35.1 17.4003C36.8503 19.1507 37.8337 21.5246 37.8337 24V32C37.8337 33.2257 37.5922 34.4393 37.1232 35.5717C36.6542 36.7041 35.9667 37.733 35.1 38.5997C34.2333 39.4663 33.2044 40.1538 32.072 40.6229C30.9397 41.0919 29.726 41.3333 28.5003 41.3333C27.2747 41.3333 26.061 41.0919 24.9286 40.6229C23.7962 40.1538 22.7673 39.4663 21.9007 38.5997C21.034 37.733 20.3465 36.7041 19.8774 35.5717C19.4084 34.4393 19.167 33.2257 19.167 32V24Z" stroke="white" stroke-width="2.5"/>
<path d="M26.5 23.3333C26.5 22.8029 26.7107 22.2942 27.0858 21.9191C27.4609 21.544 27.9696 21.3333 28.5 21.3333C29.0304 21.3333 29.5391 21.544 29.9142 21.9191C30.2893 22.2942 30.5 22.8029 30.5 23.3333V26C30.5 26.5304 30.2893 27.0391 29.9142 27.4142C29.5391 27.7893 29.0304 28 28.5 28C27.9696 28 27.4609 27.7893 27.0858 27.4142C26.7107 27.0391 26.5 26.5304 26.5 26V23.3333Z" stroke="white" stroke-width="2.5"/>
<path d="M28.5 14.6667V21.3333" stroke="white" stroke-width="2.5" stroke-linecap="round"/>
</svg>
