<svg width="57" height="56" viewBox="0 0 57 56" fill="none" xmlns="http://www.w3.org/2000/svg">
<rect x="0.5" width="56" height="56" rx="28" fill="#00CCBB"/>
<path d="M23.8333 17.3333C23.308 17.3333 22.7879 17.4368 22.3026 17.6378C21.8173 17.8388 21.3763 18.1335 21.0049 18.5049C20.6335 18.8763 20.3388 19.3173 20.1378 19.8026C19.9368 20.2879 19.8333 20.8081 19.8333 21.3333C19.8333 21.8586 19.9368 22.3788 20.1378 22.8641C20.3388 23.3494 20.6335 23.7903 21.0049 24.1618C21.3763 24.5332 21.8173 24.8278 22.3026 25.0289C22.7879 25.2299 23.308 25.3333 23.8333 25.3333C24.8942 25.3333 25.9116 24.9119 26.6618 24.1618C27.4119 23.4116 27.8333 22.3942 27.8333 21.3333C27.8333 20.2725 27.4119 19.2551 26.6618 18.5049C25.9116 17.7548 24.8942 17.3333 23.8333 17.3333ZM17.1667 21.3333C17.1667 19.5652 17.869 17.8695 19.1193 16.6193C20.3695 15.3691 22.0652 14.6667 23.8333 14.6667C25.6014 14.6667 27.2971 15.3691 28.5474 16.6193C29.7976 17.8695 30.5 19.5652 30.5 21.3333C30.5 23.1014 29.7976 24.7971 28.5474 26.0474C27.2971 27.2976 25.6014 28 23.8333 28C22.0652 28 20.3695 27.2976 19.1193 26.0474C17.869 24.7971 17.1667 23.1014 17.1667 21.3333ZM39.9307 19.5307L40.5933 20.6867C41.4059 22.1018 41.8333 23.7052 41.8328 25.337C41.8324 26.9688 41.4041 28.572 40.5907 29.9867L39.9253 31.1427L37.6147 29.8133L38.2787 28.6573C38.8597 27.647 39.1658 26.5019 39.1663 25.3364C39.1667 24.1708 38.8616 23.0255 38.2813 22.0147L37.6173 20.8587L39.9307 19.5307ZM35.884 21.8533L36.5467 23.0107C36.953 23.718 37.1669 24.5196 37.1669 25.3353C37.1669 26.1511 36.953 26.9526 36.5467 27.66L35.88 28.816L33.5693 27.4867L34.2333 26.3307C34.4076 26.0274 34.4994 25.6838 34.4994 25.334C34.4994 24.9842 34.4076 24.6406 34.2333 24.3373L33.5707 23.1813L35.884 21.8533ZM12.5 37.3333C12.5 35.5652 13.2024 33.8695 14.4526 32.6193C15.7029 31.3691 17.3986 30.6667 19.1667 30.6667H28.5C30.2681 30.6667 31.9638 31.3691 33.214 32.6193C34.4643 33.8695 35.1667 35.5652 35.1667 37.3333V40H32.5V37.3333C32.5 36.2725 32.0786 35.2551 31.3284 34.5049C30.5783 33.7548 29.5609 33.3333 28.5 33.3333H19.1667C18.1058 33.3333 17.0884 33.7548 16.3382 34.5049C15.5881 35.2551 15.1667 36.2725 15.1667 37.3333V40H12.5V37.3333Z" fill="white"/>
</svg>
